<?xml version="1.0" encoding="UTF-8" standalone="no"?>
<svg
   xmlns:dc="http://purl.org/dc/elements/1.1/"
   xmlns:cc="http://creativecommons.org/ns#"
   xmlns:rdf="http://www.w3.org/1999/02/22-rdf-syntax-ns#"
   xmlns:svg="http://www.w3.org/2000/svg"
   xmlns="http://www.w3.org/2000/svg"
   viewBox="0 0 2073.9868 1122.52"
   height="1122.52"
   width="2073.9868"
   xml:space="preserve"
   id="svg2"
   version="1.1"><metadata
     id="metadata8"><rdf:RDF><cc:Work
         rdf:about=""><dc:format>image/svg+xml</dc:format><dc:type
           rdf:resource="http://purl.org/dc/dcmitype/StillImage" /></cc:Work></rdf:RDF></metadata><defs
     id="defs6"><clipPath
       id="clipPath20"
       clipPathUnits="userSpaceOnUse"><path
         id="path18"
         d="M 0,841.89 H 1555.49 V 0 H 0 Z" /></clipPath><linearGradient
       id="linearGradient88"
       spreadMethod="pad"
       gradientTransform="matrix(668.65265,0,0,668.65265,779.61786,524.99548)"
       gradientUnits="userSpaceOnUse"
       y2="0"
       x2="1"
       y1="0"
       x1="0"><stop
         id="stop82"
         offset="0"
         style="stop-opacity:1;stop-color:#6dc17e" /><stop
         id="stop84"
         offset="0.58"
         style="stop-opacity:1;stop-color:#48b6b0" /><stop
         id="stop86"
         offset="1"
         style="stop-opacity:1;stop-color:#48b6b0" /></linearGradient><linearGradient
       id="linearGradient110"
       spreadMethod="pad"
       gradientTransform="matrix(668.65265,0,0,668.65265,779.61786,508.87451)"
       gradientUnits="userSpaceOnUse"
       y2="0"
       x2="1"
       y1="0"
       x1="0"><stop
         id="stop104"
         offset="0"
         style="stop-opacity:1;stop-color:#6dc17e" /><stop
         id="stop106"
         offset="0.58"
         style="stop-opacity:1;stop-color:#48b6b0" /><stop
         id="stop108"
         offset="1"
         style="stop-opacity:1;stop-color:#48b6b0" /></linearGradient><linearGradient
       id="linearGradient132"
       spreadMethod="pad"
       gradientTransform="matrix(668.65265,0,0,668.65265,779.578,509.72147)"
       gradientUnits="userSpaceOnUse"
       y2="0"
       x2="1"
       y1="0"
       x1="0"><stop
         id="stop126"
         offset="0"
         style="stop-opacity:1;stop-color:#6dc17e" /><stop
         id="stop128"
         offset="0.58"
         style="stop-opacity:1;stop-color:#48b6b0" /><stop
         id="stop130"
         offset="1"
         style="stop-opacity:1;stop-color:#48b6b0" /></linearGradient><linearGradient
       id="linearGradient154"
       spreadMethod="pad"
       gradientTransform="matrix(668.65265,0,0,668.65265,779.61786,508.84601)"
       gradientUnits="userSpaceOnUse"
       y2="0"
       x2="1"
       y1="0"
       x1="0"><stop
         id="stop148"
         offset="0"
         style="stop-opacity:1;stop-color:#6dc17e" /><stop
         id="stop150"
         offset="0.58"
         style="stop-opacity:1;stop-color:#48b6b0" /><stop
         id="stop152"
         offset="1"
         style="stop-opacity:1;stop-color:#48b6b0" /></linearGradient><linearGradient
       id="linearGradient176"
       spreadMethod="pad"
       gradientTransform="matrix(668.65265,0,0,668.65265,779.61786,508.84601)"
       gradientUnits="userSpaceOnUse"
       y2="0"
       x2="1"
       y1="0"
       x1="0"><stop
         id="stop170"
         offset="0"
         style="stop-opacity:1;stop-color:#6dc17e" /><stop
         id="stop172"
         offset="0.58"
         style="stop-opacity:1;stop-color:#48b6b0" /><stop
         id="stop174"
         offset="1"
         style="stop-opacity:1;stop-color:#48b6b0" /></linearGradient><linearGradient
       id="linearGradient198"
       spreadMethod="pad"
       gradientTransform="matrix(668.65265,0,0,668.65265,779.61786,509.58951)"
       gradientUnits="userSpaceOnUse"
       y2="0"
       x2="1"
       y1="0"
       x1="0"><stop
         id="stop192"
         offset="0"
         style="stop-opacity:1;stop-color:#6dc17e" /><stop
         id="stop194"
         offset="0.58"
         style="stop-opacity:1;stop-color:#48b6b0" /><stop
         id="stop196"
         offset="1"
         style="stop-opacity:1;stop-color:#48b6b0" /></linearGradient><linearGradient
       id="linearGradient220"
       spreadMethod="pad"
       gradientTransform="matrix(668.65265,0,0,668.65265,779.61786,525.06104)"
       gradientUnits="userSpaceOnUse"
       y2="0"
       x2="1"
       y1="0"
       x1="0"><stop
         id="stop214"
         offset="0"
         style="stop-opacity:1;stop-color:#6dc17e" /><stop
         id="stop216"
         offset="0.58"
         style="stop-opacity:1;stop-color:#48b6b0" /><stop
         id="stop218"
         offset="1"
         style="stop-opacity:1;stop-color:#48b6b0" /></linearGradient><linearGradient
       id="linearGradient242"
       spreadMethod="pad"
       gradientTransform="matrix(668.65265,0,0,668.65265,779.61786,509.58951)"
       gradientUnits="userSpaceOnUse"
       y2="0"
       x2="1"
       y1="0"
       x1="0"><stop
         id="stop236"
         offset="0"
         style="stop-opacity:1;stop-color:#6dc17e" /><stop
         id="stop238"
         offset="0.58"
         style="stop-opacity:1;stop-color:#48b6b0" /><stop
         id="stop240"
         offset="1"
         style="stop-opacity:1;stop-color:#48b6b0" /></linearGradient><linearGradient
       id="linearGradient264"
       spreadMethod="pad"
       gradientTransform="matrix(668.65265,0,0,668.65265,779.61786,508.84601)"
       gradientUnits="userSpaceOnUse"
       y2="0"
       x2="1"
       y1="0"
       x1="0"><stop
         id="stop258"
         offset="0"
         style="stop-opacity:1;stop-color:#6dc17e" /><stop
         id="stop260"
         offset="0.58"
         style="stop-opacity:1;stop-color:#48b6b0" /><stop
         id="stop262"
         offset="1"
         style="stop-opacity:1;stop-color:#48b6b0" /></linearGradient><linearGradient
       id="linearGradient286"
       spreadMethod="pad"
       gradientTransform="matrix(668.65265,0,0,668.65265,779.61786,508.84601)"
       gradientUnits="userSpaceOnUse"
       y2="0"
       x2="1"
       y1="0"
       x1="0"><stop
         id="stop280"
         offset="0"
         style="stop-opacity:1;stop-color:#6dc17e" /><stop
         id="stop282"
         offset="0.58"
         style="stop-opacity:1;stop-color:#48b6b0" /><stop
         id="stop284"
         offset="1"
         style="stop-opacity:1;stop-color:#48b6b0" /></linearGradient><linearGradient
       id="linearGradient308"
       spreadMethod="pad"
       gradientTransform="matrix(0,6,-6,0,1012.7839,408.41394)"
       gradientUnits="userSpaceOnUse"
       y2="0"
       x2="1"
       y1="0"
       x1="0"><stop
         id="stop302"
         offset="0"
         style="stop-opacity:1;stop-color:#6dc17e" /><stop
         id="stop304"
         offset="0.32192848"
         style="stop-opacity:1;stop-color:#49afa3" /><stop
         id="stop306"
         offset="1"
         style="stop-opacity:1;stop-color:#49afa3" /></linearGradient></defs><g
     transform="matrix(1.3333333,0,0,-1.3333333,0,1122.52)"
     id="g10"><path
       id="path12"
       style="fill:#47b6b0;fill-opacity:1;fill-rule:nonzero;stroke:none"
       d="M 127.151,403.031 H 81.815 v 36.408 h 45.336 z" /><g
       id="g14"><g
         clip-path="url(#clipPath20)"
         id="g16"><g
           transform="translate(330.3218,382.9932)"
           id="g22"><path
             id="path24"
             style="fill:#6cc17d;fill-opacity:1;fill-rule:nonzero;stroke:none"
             d="m 0,0 c 2.423,8.997 -2.589,16.982 -12.243,22.38 -5.319,2.973 -13.465,7.393 -22.102,12.227 l 0.078,0.037 c -6.206,3.632 -13.78,8.161 -22.395,12.972 -0.019,0.01 -0.039,0.023 -0.057,0.033 l -0.002,-10e-4 c -5.405,3.018 -11.214,6.144 -17.371,9.238 0,0 -39.885,21.089 18.308,47.863 0,0 -52.029,-9.725 -58.741,-34.649 -2.424,-8.998 2.588,-16.984 12.243,-22.38 5.545,-3.1 13.648,-7.505 22.232,-12.337 5.279,-3.095 11.551,-6.839 18.592,-10.85 0.654,-0.399 1.335,-0.804 1.976,-1.2 l 0.082,0.036 c 5.86,-3.307 12.196,-6.756 18.965,-10.155 0,0 39.885,-21.089 -18.307,-47.863 0,0 52.029,9.722 58.742,34.649" /></g><g
           transform="translate(353.2915,433.0552)"
           id="g26"><path
             id="path28"
             style="fill:#6cc17d;fill-opacity:1;fill-rule:nonzero;stroke:none"
             d="m 0,0 c 0,0 29.525,55.031 -70.149,54.686 0,0 35.703,-4.187 41.152,-19.559 0,0 -35.801,15.07 -46.569,12.621 0,0 -0.802,-24.936 46.666,-31.513 C -4.939,12.916 0,0 0,0" /></g><g
           transform="translate(275.6743,649.0317)"
           id="g30"><path
             id="path32"
             style="fill:#6cc17d;fill-opacity:1;fill-rule:nonzero;stroke:none"
             d="m 0,0 c -119.676,0 -217.725,-92.306 -227.008,-209.593 h 33.149 c 8.627,93.013 82.645,167.036 175.654,175.664 v -29.347 c -32.816,-8.155 -57.171,-37.729 -57.171,-73.069 v -40.169 c 73.005,63.785 150.75,26.365 150.75,26.365 v 13.804 c 0,35.34 -24.353,64.913 -57.171,73.069 v 29.347 c 93.011,-8.628 167.028,-82.651 175.655,-175.664 h 33.149 C 217.723,-92.306 119.675,0 0,0" /></g><g
           transform="translate(469.5327,403.0312)"
           id="g34"><path
             id="path36"
             style="fill:#47b6b0;fill-opacity:1;fill-rule:nonzero;stroke:none"
             d="m 0,0 c -8.627,-93.015 -82.645,-167.037 -175.655,-175.665 v 29.348 c 32.817,8.155 57.171,37.727 57.171,73.068 V -41.5 c -71.787,-62.511 -150.75,-18.285 -150.75,-18.285 v -13.464 c 0,-35.341 24.354,-64.914 57.171,-73.068 v -29.348 C -305.072,-167.037 -379.091,-93.014 -387.718,0 h -33.148 c 9.283,-117.289 107.332,-209.594 227.008,-209.594 119.674,0 217.722,92.305 227.006,209.594 z" /></g><g
           transform="translate(193.1304,373.9268)"
           id="g38"><path
             id="path40"
             style="fill:#47b6b0;fill-opacity:1;fill-rule:nonzero;stroke:none"
             d="m 0,0 c 9.964,-14.666 30.289,-28.74 71.744,-24.962 0,0 -32.078,5.252 -44.537,21.421 0,0 38.755,-16.526 50.447,-13.924 0,0 -8.646,29.491 -48.466,42.713 C 25.693,26.409 22.436,27.408 19.362,28 4.448,30.875 -9.288,13.671 0,0" /></g><path
           id="path42"
           style="fill:#6cc17d;fill-opacity:1;fill-rule:nonzero;stroke:none"
           d="m 469.815,403.031 h -45.336 v 36.408 h 45.336 z" /><g
           transform="translate(593.2573,252.5635)"
           id="g44"><path
             id="path46"
             style="fill:#47b6b0;fill-opacity:1;fill-rule:nonzero;stroke:none"
             d="m 0,0 h 23.511 c 14.288,0 25.084,6.829 25.084,22.22 0,13.833 -8.687,22.093 -26.611,22.093 H 0 Z m 22.629,57.53 c 16.146,0 22.63,6.312 22.63,17.799 0,10.747 -7.05,17.876 -21.418,17.876 L 0,93.205 V 57.53 Z m -38.978,48.783 h 42.55 c 22.376,0 35.438,-11.535 35.438,-29.63 0,-15.659 -9.49,-22.363 -16.587,-24.753 8.356,-3.053 20.458,-10.938 20.458,-29.522 0,-22.847 -16.743,-35.436 -40.662,-35.436 h -41.197 z" /></g><path
           id="path48"
           style="fill:#47b6b0;fill-opacity:1;fill-rule:nonzero;stroke:none"
           d="M 735.119,327.656 H 751.2 v -88.121 h -16.081 z m 0,37.908 H 751.2 V 346.35 h -16.081 z" /><g
           transform="translate(843.9297,284.791)"
           id="g50"><path
             id="path52"
             style="fill:#47b6b0;fill-opacity:1;fill-rule:nonzero;stroke:none"
             d="m 0,0 c 0,-20.001 7.932,-33.598 23.194,-33.598 15.548,0 22.521,13.315 22.521,33.725 0,18.805 -7.602,31.268 -23.024,31.268 C 7.837,31.395 0,18.584 0,0 m 62.252,0.204 c 0,-25.555 -11.394,-47.003 -39.923,-47.003 -28.041,0 -38.85,22.441 -38.85,46.578 0,22.912 12.634,44.818 39.967,44.818 25.617,0 38.806,-19.292 38.806,-44.393" /></g><g
           transform="translate(971.9854,327.6562)"
           id="g54"><path
             id="path56"
             style="fill:#47b6b0;fill-opacity:1;fill-rule:nonzero;stroke:none"
             d="M 0,0 H 13.802 V 25.287 H 29.804 V 0 H 47.177 V -13.028 H 29.804 v -53.22 c 0,-7.113 1.761,-10.105 9.22,-10.105 2.362,0 4.501,0.191 6.533,0.537 v -11.819 c -3.619,-1.273 -8.94,-1.542 -12.038,-1.542 -13.627,0 -19.717,5.273 -19.717,20.238 v 55.911 l -13.802,0 z" /></g><g
           transform="translate(1143.916,291.7939)"
           id="g58"><path
             id="path60"
             style="fill:#47b6b0;fill-opacity:1;fill-rule:nonzero;stroke:none"
             d="M 0,0 C -0.439,14.006 -6.059,24.784 -20.692,24.784 -37.312,24.784 -41.276,9.992 -42.001,0 Z m -42.348,-11.439 c -0.092,-16.321 6.768,-29.272 21.843,-29.272 13.455,0 17.609,9.285 19.198,13.755 h 15.846 c -3.162,-11.691 -12.085,-26.955 -35.735,-26.955 -27.681,0 -37.498,21.213 -37.498,45.917 0,21.669 10.683,45.588 38.346,45.588 27.994,0 36.208,-21.464 36.208,-42.251 0,-0.63 -0.078,-6.074 -0.157,-6.782 z" /></g><g
           transform="translate(1304.7012,268.1582)"
           id="g62"><path
             id="path64"
             style="fill:#47b6b0;fill-opacity:1;fill-rule:nonzero;stroke:none"
             d="m 0,0 c -3.367,-17.325 -14.319,-30.275 -36.02,-30.275 -25.209,0 -37.717,16.474 -37.717,45.823 0,25.868 13.327,45.681 38.71,45.681 24.5,0 33.831,-17.057 34.932,-31.172 h -16.19 c -1.542,9.598 -6.721,18.207 -19.073,18.207 -15.282,0 -21.859,-13.471 -21.859,-32.339 0,-22.203 7.775,-33.315 21.622,-33.315 11.772,0 16.617,7.35 19.483,17.39 z" /></g><g
           transform="translate(1395.6211,365.5645)"
           id="g66"><path
             id="path68"
             style="fill:#47b6b0;fill-opacity:1;fill-rule:nonzero;stroke:none"
             d="m 0,0 v -50.184 c 4.249,8.232 12.795,14.006 25.902,14.006 13.391,0 27.727,-7.081 27.727,-31.676 v -58.175 H 37.705 v 55.501 c 0,12.699 -4.861,20.488 -17.309,20.488 C 6.83,-50.04 0,-59.104 0,-75.989 v -50.04 H -16.08 V 0 Z" /></g></g></g><g
       id="g70"><g
         id="g72"><g
           id="g78"><g
             id="g80"><path
               id="path90"
               style="fill:url(#linearGradient88);stroke:none"
               d="m 564.097,525.379 c 0,-37.512 14.571,-66.862 54.334,-66.862 v 0 c 32.233,0 46.485,20.126 50.099,41.532 v 0 h -22.533 c -2.972,-11.341 -9.122,-23.108 -27.058,-23.108 v 0 c -24.027,0 -31.328,23.032 -31.328,48.513 v 0 c 0,24.633 8.182,47.463 31.063,47.463 v 0 c 18.278,0 23.859,-10.747 26.702,-22.937 v 0 h 22.457 c -1.673,20.646 -15.244,41.494 -48.385,41.494 v 0 c -37.388,0 -55.351,-30.437 -55.351,-66.095" /></g></g></g></g><g
       id="g92"><g
         id="g94"><g
           id="g100"><g
             id="g102"><path
               id="path112"
               style="fill:url(#linearGradient110);stroke:none"
               d="m 682.822,528.733 h 21.516 c 1.148,8.313 4.587,14.299 16.782,14.299 v 0 c 13.054,0 15.558,-7.261 15.558,-15.597 v 0 -7.827 h -12.531 c -33.921,0 -45.091,-14.962 -45.091,-31.422 v 0 c 0,-14.215 8.062,-29.481 31.895,-29.481 v 0 c 14.586,0 23.903,6.002 27.819,14.489 v 0 c 0.132,-4.117 0.753,-9.746 1.449,-12.795 v 0 h 19.613 c -0.884,6.273 -1.373,17.271 -1.373,23.859 v 0 43.514 c 0,23.31 -14.932,31.272 -36.907,31.272 v 0 c -28.341,0 -37.565,-14.725 -38.73,-30.311 m 18.579,-38.907 c 0,7.261 3.633,15.144 23.029,15.144 v 0 h 12.964 v -2.013 c 0,-16.063 -4.475,-27.071 -20.939,-27.071 v 0 c -10.519,0 -15.054,6.397 -15.054,13.94" /></g></g></g></g><g
       id="g114"><g
         id="g116"><g
           id="g122"><g
             id="g124"><path
               id="path134"
               style="fill:url(#linearGradient132);stroke:none"
               d="m 802,543.763 c 0.056,4.368 -0.453,11.649 -0.773,13.398 v 0 h -21.649 c 0.187,-4.216 0.376,-10.184 0.376,-30.214 v 0 -66.548 h 22.176 v 53.243 c 0,18.066 6.08,26.846 19.529,26.846 v 0 c 12.852,0 16.237,-9.07 16.237,-21.055 v 0 -59.034 h 22.233 v 63.087 c 0,23.561 -11.139,35.558 -30.647,35.558 v 0 c -14.51,0 -23.529,-7.376 -27.482,-15.281" /></g></g></g></g><g
       id="g136"><g
         id="g138"><g
           id="g144"><g
             id="g146"><path
               id="path156"
               style="fill:url(#linearGradient154);stroke:none"
               d="m 875.7,508.761 c 0,-31.87 13.837,-50.113 42.646,-50.113 v 0 c 25.779,0 37.922,15.291 41.121,34.551 v 0 h -22.025 c -2.559,-9.898 -6.81,-17.426 -18.589,-17.426 v 0 c -13.017,0 -20.544,10.366 -20.544,33.723 v 0 c 0,18.988 6.132,32.291 20.94,32.291 v 0 c 12.042,0 16.745,-8.618 18.004,-18.081 v 0 h 22.158 c -0.827,14.282 -10.047,35.338 -39.709,35.338 v 0 c -27.977,0 -44.002,-20.571 -44.002,-50.283" /></g></g></g></g><g
       id="g158"><g
         id="g160"><g
           id="g166"><g
             id="g168"><path
               id="path178"
               style="fill:url(#linearGradient176);stroke:none"
               d="m 968.693,508.818 c 0,-28.168 11.979,-50.17 42.685,-50.17 v 0 c 26.092,0 36.771,15.904 40.952,30.615 v 0 h -21.781 c -1.542,-4.535 -5.55,-12.961 -18.419,-12.961 v 0 c -15.28,0 -21.072,13.249 -21.015,27.655 v 0 h 62.25 c 0.132,1.187 0.264,6.645 0.264,7.699 v 0 c 0,24.046 -9.49,47.388 -41.234,47.388 v 0 c -31.804,0 -43.702,-26.336 -43.702,-50.226 m 43.325,33.234 c 14.337,0 19.473,-10.424 19.905,-23.195 v 0 h -40.432 c 0.601,9.614 4.499,23.195 20.527,23.195" /></g></g></g></g><g
       id="g180"><g
         id="g182"><g
           id="g188"><g
             id="g190"><path
               id="path200"
               style="fill:url(#linearGradient198);stroke:none"
               d="m 1090.771,539.302 c 0,7.394 -0.132,13.55 -0.584,17.859 v 0 h -21.649 c 0.321,-6.027 0.377,-17.054 0.377,-32.792 v 0 -63.97 h 22.177 v 45.192 c 0,21.766 9.091,30.544 29.647,30.6 v 0 22.589 c -17.06,-0.112 -26.281,-10.054 -29.968,-19.478" /></g></g></g></g><g
       id="g202"><g
         id="g204"><g
           id="g210"><g
             id="g212"><path
               id="path222"
               style="fill:url(#linearGradient220);stroke:none"
               d="M 1133.86,589.723 V 460.399 h 22.421 v 55.314 h 54.457 v 18.765 h -54.457 v 36.216 h 58.012 v 19.029 z" /></g></g></g></g><g
       id="g224"><g
         id="g226"><g
           id="g232"><g
             id="g234"><path
               id="path244"
               style="fill:url(#linearGradient242);stroke:none"
               d="m 1247.207,539.302 c 0,7.394 -0.131,13.55 -0.584,17.859 v 0 h -21.648 c 0.32,-6.027 0.376,-17.054 0.376,-32.792 v 0 -63.97 h 22.178 v 45.192 c 0,21.766 9.091,30.544 29.646,30.6 v 0 22.589 c -17.059,-0.112 -26.28,-10.054 -29.968,-19.478" /></g></g></g></g><g
       id="g246"><g
         id="g248"><g
           id="g254"><g
             id="g256"><path
               id="path266"
               style="fill:url(#linearGradient264);stroke:none"
               d="m 1282.318,508.818 c 0,-28.168 11.978,-50.17 42.684,-50.17 v 0 c 26.092,0 36.772,15.904 40.952,30.615 v 0 h -21.782 c -1.542,-4.535 -5.549,-12.961 -18.418,-12.961 v 0 c -15.28,0 -21.072,13.249 -21.015,27.655 v 0 h 62.249 c 0.133,1.187 0.265,6.645 0.265,7.699 v 0 c 0,24.046 -9.491,47.388 -41.233,47.388 v 0 c -31.804,0 -43.702,-26.336 -43.702,-50.226 m 43.323,33.234 c 14.339,0 19.474,-10.424 19.907,-23.195 v 0 h -40.432 c 0.6,9.614 4.496,23.195 20.525,23.195" /></g></g></g></g><g
       id="g268"><g
         id="g270"><g
           id="g276"><g
             id="g278"><path
               id="path288"
               style="fill:url(#linearGradient286);stroke:none"
               d="m 1377.76,508.818 c 0,-28.168 11.979,-50.17 42.683,-50.17 v 0 c 26.094,0 36.77,15.904 40.954,30.615 v 0 h -21.782 c -1.544,-4.535 -5.551,-12.961 -18.42,-12.961 v 0 c -15.28,0 -21.07,13.249 -21.016,27.655 v 0 h 62.251 c 0.126,1.13 0.252,6.133 0.263,7.519 v 0 0.581 c -0.105,23.904 -9.665,46.987 -41.233,46.987 v 0 c -31.802,0 -43.7,-26.336 -43.7,-50.226 m 43.324,33.234 c 14.338,0 19.471,-10.424 19.905,-23.195 v 0 h -40.432 c 0.602,9.614 4.497,23.195 20.527,23.195" /></g></g></g></g><g
       id="g290"><g
         id="g292"><g
           id="g298"><g
             id="g300"><path
               id="path310"
               style="fill:url(#linearGradient308);stroke:none"
               d="m 571.871,408.414 h 881.826 v 6 H 571.871 Z" /></g></g></g></g></g></svg>